<svg xmlns="http://www.w3.org/2000/svg" viewBox="0 0 128 128" fill="none">
  <!-- Background Circle with Gradient -->
  <defs>
    <linearGradient id="grad1" x1="0%" y1="0%" x2="100%" y2="100%">
      <stop offset="0%" style="stop-color:#2563eb;stop-opacity:1" />
      <stop offset="100%" style="stop-color:#7c3aed;stop-opacity:1" />
    </linearGradient>
  </defs>
  
  <!-- Main Circle Background -->
  <circle cx="64" cy="64" r="60" fill="url(#grad1)"/>
  
  <!-- Book Icon -->
  <path d="M40 35 L40 93 L88 93 L88 35 L40 35 Z" fill="white" opacity="0.2"/>
  <path d="M44 39 L44 89 L84 89 L84 39 L44 39 Z" fill="white"/>
  
  <!-- Book Pages -->
  <line x1="64" y1="39" x2="64" y2="89" stroke="url(#grad1)" stroke-width="2"/>
  <line x1="50" y1="50" x2="60" y2="50" stroke="url(#grad1)" stroke-width="1.5" stroke-linecap="round"/>
  <line x1="50" y1="58" x2="60" y2="58" stroke="url(#grad1)" stroke-width="1.5" stroke-linecap="round"/>
  <line x1="50" y1="66" x2="60" y2="66" stroke="url(#grad1)" stroke-width="1.5" stroke-linecap="round"/>
  <line x1="68" y1="50" x2="78" y2="50" stroke="url(#grad1)" stroke-width="1.5" stroke-linecap="round"/>
  <line x1="68" y1="58" x2="78" y2="58" stroke="url(#grad1)" stroke-width="1.5" stroke-linecap="round"/>
  <line x1="68" y1="66" x2="78" y2="66" stroke="url(#grad1)" stroke-width="1.5" stroke-linecap="round"/>
  
  <!-- Graduation Cap -->
  <path d="M64 45 L50 51 L64 57 L78 51 Z" fill="#fbbf24"/>
  <path d="M64 57 L64 62 L68 64 L68 59 Z" fill="#fbbf24"/>
  <circle cx="80" cy="49" r="2" fill="#fbbf24"/>
</svg>
